<?xml version="1.0" encoding="UTF-8"?> <svg xmlns="http://www.w3.org/2000/svg" width="125.12" height="51.266" viewBox="0 0 125.12 51.266"><g id="Group_4667" data-name="Group 4667" transform="translate(0 -0.033)"><path id="Path_4222" data-name="Path 4222" d="M0,87.653H5.74c.038.311.065.578.1.842a3.934,3.934,0,0,0,2.945,3.517,7.265,7.265,0,0,0,4.607-.106,3.053,3.053,0,0,0,2.117-2.662,2.69,2.69,0,0,0-1.577-2.964c-1.468-.684-3.024-1.177-4.544-1.752-1.458-.55-2.964-1-4.364-1.673A6.869,6.869,0,0,1,.869,76.862c-.016-.221-.022-.444-.035-.722h5.56c.172,1.82,1.477,2.659,2.991,3.217,1.991.736,4.062,1.272,6.026,2.073A12.364,12.364,0,0,1,18.956,83.5c2.861,2.531,2.811,7.647.049,10.535A10.021,10.021,0,0,1,11.9,96.948a13.479,13.479,0,0,1-6.936-1.264A8.358,8.358,0,0,1,.109,88.369,2.668,2.668,0,0,0,0,87.923Z" transform="translate(0 -55.373)"></path><path id="Path_4223" data-name="Path 4223" d="M287.69,84.372V45.49h5.476c.011.242.035.479.035.719q0,18.712,0,37.424c0,.245-.044.493-.065.738Z" transform="translate(-209.314 -33.073)"></path><path id="Path_4224" data-name="Path 4224" d="M397.741,64.322h5.315a9.48,9.48,0,0,1-2.806,6.922,9.929,9.929,0,0,1-6.623,2.583,11.484,11.484,0,0,1-6.917-1.537,8.818,8.818,0,0,1-4.31-7.383c-.169-3.839-.166-7.7-.011-11.537a9.308,9.308,0,0,1,8.925-8.941,12.017,12.017,0,0,1,7.585,1.537,8.963,8.963,0,0,1,4.242,7.285c.177,2.387.079,4.795.1,7.192a1.315,1.315,0,0,1-.065.281H390.688V56.508h7.091c.011-1.681.213-3.286-.458-4.817a4.586,4.586,0,0,0-4.694-2.569c-3.2.136-4.885,1.9-4.89,5.1q-.008,4.855.005,9.712a7.228,7.228,0,0,0,.12,1.417,4.261,4.261,0,0,0,4.07,3.637,8.112,8.112,0,0,0,1.763-.011,4.148,4.148,0,0,0,3.928-3.907C397.657,64.834,397.7,64.589,397.741,64.322Z" transform="translate(-278.13 -32.257)"></path><path id="Path_4225" data-name="Path 4225" d="M100.748,43.653H95.31V3.3h5.438Z" transform="translate(-69.345 -2.377)"></path><path id="Path_4226" data-name="Path 4226" d="M212.041,73.364h-5.421v-.831q0-9.1,0-18.193a9.528,9.528,0,0,0-.068-1.422,4.3,4.3,0,0,0-4.92-3.961c-1.428.082-2.787.373-3.615,1.654a15.162,15.162,0,0,0-1.019,2.367H191.57a8.825,8.825,0,0,1,2.335-5.871,9.811,9.811,0,0,1,7.081-2.95,12.278,12.278,0,0,1,5.71.956,8.8,8.8,0,0,1,5.2,7.342,17.684,17.684,0,0,1,.144,2.436q.016,8.827.005,17.651C212.041,72.787,212.041,73.035,212.041,73.364Z" transform="translate(-139.38 -32.089)"></path><path id="Path_4227" data-name="Path 4227" d="M22.7,9.39H17.444c-.03-.264-.068-.529-.09-.793a3.794,3.794,0,0,0-2.863-3.553,6.573,6.573,0,0,0-3.882.057,3.106,3.106,0,0,0-2.256,2.55,2.913,2.913,0,0,0,1.395,3.272A30.883,30.883,0,0,0,13.439,12.6c1.714.7,3.5,1.24,5.171,2.041a6.81,6.81,0,0,1,4.19,6.105c.005.112,0,.226,0,.338a.945.945,0,0,1-.052.172H17.427c-.24-1.779-1.569-2.566-3.078-3.117-1.722-.629-3.479-1.15-5.206-1.763a11.739,11.739,0,0,1-4.571-2.711C1.956,11.016,1.705,4.832,6.22,1.814a12.4,12.4,0,0,1,13.278.3A8.316,8.316,0,0,1,22.7,9.39Z" transform="translate(-1.961 0)"></path><path id="Path_4228" data-name="Path 4228" d="M318.645,49.421c0-1.379-.022-2.645.022-3.909a.963.963,0,0,1,.482-.618,7.838,7.838,0,0,1,11.445,4.923,14.69,14.69,0,0,1,.523,3.675c.068,3.506.052,7.015.014,10.521a11.157,11.157,0,0,1-1.823,6.492c-2.452,3.5-7.435,3.743-10.3,2.016a.747.747,0,0,1-.343-.5c-.03-1.283-.016-2.569-.016-3.716a18.733,18.733,0,0,0,3.024.251A3.927,3.927,0,0,0,325.3,65.4a7.391,7.391,0,0,0,.278-1.937c.025-3.258.041-6.517-.008-9.775a4.566,4.566,0,0,0-6.271-4.522C319.109,49.222,318.926,49.309,318.645,49.421Z" transform="translate(-231.832 -31.904)"></path><path id="Path_4229" data-name="Path 4229" d="M138.714,73.8h-5.539v-.812q0-8.725-.008-17.449a10.738,10.738,0,0,0-.183-2.09,4.452,4.452,0,0,0-6.081-3.531c-.169.054-.338.117-.616.212,0-1.37-.019-2.686.022-4,.005-.166.3-.365.5-.477a7.9,7.9,0,0,1,11.063,3.909,12.758,12.758,0,0,1,.874,4.776q.02,9.44.005,18.877C138.755,73.391,138.73,73.568,138.714,73.8Z" transform="translate(-91.88 -32.519)"></path><path id="Path_4230" data-name="Path 4230" d="M201.831,101.55c0,1.31.016,2.577-.016,3.844a.746.746,0,0,1-.354.556,9.633,9.633,0,0,1-8.77-.384,7.505,7.505,0,0,1-3.918-6.653,8.3,8.3,0,0,1,7.606-9.037c1.765-.223,3.566-.177,5.4-.256v4.443c-.64,0-1.289-.035-1.934.008a14.762,14.762,0,0,0-2.354.275,3.785,3.785,0,0,0-3.117,4.157,3.839,3.839,0,0,0,3.814,3.694,7.707,7.707,0,0,0,1.823-.1A15.655,15.655,0,0,0,201.831,101.55Z" transform="translate(-137.335 -65.181)"></path></g></svg> 